<?xml version="1.0" standalone="no"?>
<!DOCTYPE svg PUBLIC "-//W3C//DTD SVG 20010904//EN"
 "http://www.w3.org/TR/2001/REC-SVG-20010904/DTD/svg10.dtd">
<svg version="1.0" xmlns="http://www.w3.org/2000/svg"
 width="640.000000pt" height="640.000000pt" viewBox="0 0 640.000000 640.000000"
 preserveAspectRatio="xMidYMid meet">
<metadata>
Created by potrace 1.11, written by Peter Selinger 2001-2013
</metadata>
<g transform="translate(0.000000,640.000000) scale(0.100000,-0.100000)"
fill="#000000" stroke="none">
<path d="M2985 6120 c-405 -30 -847 -160 -1188 -350 -252 -141 -428 -273 -636
-475 -486 -474 -774 -1051 -867 -1736 -23 -170 -23 -548 0 -718 75 -551 281
-1042 614 -1461 101 -127 304 -333 427 -435 116 -95 283 -212 407 -283 328
-190 699 -314 1100 -368 169 -23 547 -23 716 0 687 93 1264 381 1737 867 146
150 216 235 327 399 262 385 420 803 484 1281 23 170 23 548 0 718 -76 566
-292 1068 -643 1496 -107 131 -333 353 -456 448 -420 327 -912 533 -1438 601
-143 19 -439 27 -584 16z m575 -565 c387 -61 753 -215 1068 -449 137 -102 376
-341 476 -476 240 -323 390 -683 453 -1080 25 -162 25 -538 0 -700 -63 -398
-216 -763 -457 -1085 -95 -128 -337 -370 -461 -463 -326 -243 -691 -396 -1089
-459 -162 -25 -538 -25 -700 0 -397 63 -763 216 -1085 456 -131 98 -371 339
-469 471 -240 323 -390 683 -453 1080 -25 162 -25 538 0 700 79 502 299 945
647 1304 230 237 479 410 773 536 204 87 464 155 682 179 129 14 489 6 615
-14z"/>
<path d="M3147 5219 c-89 -21 -160 -79 -196 -159 -20 -44 -21 -62 -21 -793 l0
-747 -43 -53 c-73 -89 -92 -145 -92 -267 0 -97 2 -110 31 -171 75 -157 228
-248 401 -237 l76 5 472 -272 c259 -150 489 -278 509 -285 50 -16 151 -9 200
15 165 79 203 309 74 436 -19 19 -210 135 -424 258 -214 123 -419 242 -455
263 -61 36 -68 43 -78 85 -16 63 -46 119 -92 175 l-39 47 0 748 0 748 -24 50
c-53 112 -187 181 -299 154z"/>
</g>
</svg>
